<?xml version="1.0" standalone="no"?><!DOCTYPE svg PUBLIC "-//W3C//DTD SVG 1.1//EN" "http://www.w3.org/Graphics/SVG/1.1/DTD/svg11.dtd"><svg t="1515483372582" class="icon" style="" viewBox="0 0 1024 1024" version="1.1" xmlns="http://www.w3.org/2000/svg" p-id="1853" xmlns:xlink="http://www.w3.org/1999/xlink" width="200" height="200"><defs><style type="text/css"></style></defs><path d="M511.353535 43.959596C317.543434 43.959596 160.323232 201.179798 160.323232 394.989899 160.323232 541.737374 453.042424 980.428283 511.353535 980.040404c57.406061 0.387879 351.030303-440.242424 351.030303-585.050505C862.383838 201.179798 705.292929 43.959596 511.353535 43.959596z m0 848.420202c-48.614141 0.258586-292.589899-374.949495-292.589899-497.260606 0-161.616162 130.973737-292.589899 292.589899-292.589899s292.589899 130.973737 292.589899 292.589899c0 120.50101-244.751515 497.389899-292.589899 497.260606z m0-643.620202c-80.808081 0-146.230303 65.551515-146.230303 146.230303 0 80.808081 65.551515 146.230303 146.230303 146.230303 80.808081 0 146.230303-65.551515 146.230303-146.230303 0-80.808081-65.422222-146.230303-146.230303-146.230303z m0 234.020202c-48.484848 0-87.789899-39.305051-87.789899-87.789899 0-48.484848 39.305051-87.789899 87.789899-87.789899 48.484848 0 87.789899 39.305051 87.789899 87.789899 0 48.484848-39.305051 87.789899-87.789899 87.789899z m0 0" fill="#d81e06" p-id="1854"></path></svg>